<svg xmlns="http://www.w3.org/2000/svg" width="64" height="64" viewBox="0 0 64 64" shape-rendering="crispEdges"><rect x="20" y="4" width="7" height="7" fill="#8dff6a"/><rect x="28" y="4" width="7" height="7" fill="#2f6b2c"/><rect x="36" y="4" width="7" height="7" fill="#2f6b2c"/><rect x="12" y="12" width="7" height="7" fill="#8dff6a"/><rect x="20" y="12" width="7" height="7" fill="#2f6b2c"/><rect x="28" y="12" width="7" height="7" fill="#2f6b2c"/><rect x="36" y="12" width="7" height="7" fill="#2f6b2c"/><rect x="44" y="12" width="7" height="7" fill="#8dff6a"/><rect x="4" y="20" width="7" height="7" fill="#8dff6a"/><rect x="12" y="20" width="7" height="7" fill="#2f6b2c"/><rect x="44" y="20" width="7" height="7" fill="#2f6b2c"/><rect x="52" y="20" width="7" height="7" fill="#2f6b2c"/><rect x="4" y="28" width="7" height="7" fill="#2f6b2c"/><rect x="12" y="28" width="7" height="7" fill="#2f6b2c"/><rect x="44" y="28" width="7" height="7" fill="#2f6b2c"/><rect x="52" y="28" width="7" height="7" fill="#2f6b2c"/><rect x="4" y="36" width="7" height="7" fill="#2f6b2c"/><rect x="12" y="36" width="7" height="7" fill="#2f6b2c"/><rect x="44" y="36" width="7" height="7" fill="#2f6b2c"/><rect x="52" y="36" width="7" height="7" fill="#8dff6a"/><rect x="12" y="44" width="7" height="7" fill="#8dff6a"/><rect x="20" y="44" width="7" height="7" fill="#2f6b2c"/><rect x="28" y="44" width="7" height="7" fill="#2f6b2c"/><rect x="36" y="44" width="7" height="7" fill="#2f6b2c"/><rect x="44" y="44" width="7" height="7" fill="#8dff6a"/><rect x="20" y="52" width="7" height="7" fill="#2f6b2c"/><rect x="28" y="52" width="7" height="7" fill="#2f6b2c"/><rect x="36" y="52" width="7" height="7" fill="#8dff6a"/></svg>